<svg width="502" height="501" xmlns="http://www.w3.org/2000/svg" xmlns:xlink="http://www.w3.org/1999/xlink" overflow="hidden"><defs><clipPath id="clip0"><rect x="389" y="149" width="502" height="501"/></clipPath><clipPath id="clip1"><rect x="390" y="149" width="500" height="500"/></clipPath><clipPath id="clip2"><rect x="390" y="149" width="500" height="500"/></clipPath><clipPath id="clip3"><rect x="390" y="149" width="500" height="500"/></clipPath></defs><g clip-path="url(#clip0)" transform="translate(-389 -149)"><g clip-path="url(#clip1)"><g clip-path="url(#clip2)"><g clip-path="url(#clip3)"><path d="M640 612.542C623.891 612.542 615.521 603.359 608.026 592.88 602.208 584.75 598.453 580.104 589.036 579.24 577.438 578.198 566.453 584.505 553.734 591.823 532.635 603.974 506.375 619.083 468.875 601.385 463.709 598.854 461.573 592.614 464.105 587.448 466.584 582.389 472.636 580.218 477.766 582.547 505.422 595.599 522.995 585.479 543.339 573.771 557.807 565.438 572.75 556.823 590.943 558.495 610.307 560.271 618.776 572.109 624.969 580.755 632.344 591.057 636.047 596.229 659.036 587.005 664.378 584.868 670.441 587.466 672.578 592.807 674.715 598.149 672.118 604.212 666.776 606.349 658.321 610.082 649.236 612.183 640 612.542Z" fill="#FFFFFF"/><path d="M516.562 481.906C504.844 500.844 479.87 543.792 469.51 581.172 469.47 581.364 469.593 581.551 469.784 581.591 469.916 581.619 470.052 581.569 470.135 581.464 479.37 570.387 489.952 560.507 501.635 552.052L501.635 552.052C501.781 551.62 510.698 526.214 537.12 486.047 537.17 485.969 537.263 485.928 537.354 485.943 546.834 486.778 556.383 485.567 565.354 482.391 601.901 472.245 628.375 437.51 630.979 433.953 631.083 433.812 630.979 433.656 630.792 433.656 616.686 433.489 602.795 430.191 590.12 424 589.798 423.843 589.58 423.532 589.542 423.177 589.522 423.032 589.536 422.884 589.583 422.745 589.735 422.247 590.231 421.938 590.745 422.021L590.776 422.021C618.659 426.44 646.815 415.896 664.938 394.25 676.194 380.717 688.563 368.151 701.917 356.682 718.672 342.292 739.875 328.005 759.469 313.234 760.489 312.423 760.657 310.939 759.846 309.919 759.492 309.473 758.987 309.171 758.427 309.068 745.536 306.661 733.283 301.612 722.438 294.24 722.183 294.068 722.018 293.794 721.984 293.49 721.958 293.294 721.991 293.094 722.078 292.917 722.301 292.446 722.837 292.213 723.333 292.37 739.694 297.368 757.098 297.879 773.724 293.849 783.511 291.432 792.29 285.995 798.812 278.307 816.161 258.042 823.292 236.255 807.464 211.714 796.672 194.979 772.615 187.755 741.432 191.354 723.172 193.278 707.538 205.29 700.974 222.438 698.733 228.445 697.108 234.664 696.125 241 696.125 241.576 695.659 242.042 695.083 242.042 694.508 242.042 694.042 241.576 694.042 241 693.891 239.958 693.76 238.917 693.641 237.875 692.482 227.524 693.033 217.053 695.271 206.88 695.578 205.643 694.823 204.392 693.587 204.085 693.137 203.974 692.664 204.001 692.229 204.161 667.795 213.957 644.696 226.798 623.479 242.38 598.908 260.065 576.375 280.42 556.292 303.073 543.401 317.553 536.509 336.401 537.021 355.781 537.343 363.91 538.716 371.963 541.104 379.74 541.301 380.28 541.022 380.878 540.481 381.074 540.014 381.244 539.492 381.06 539.234 380.635 532.57 370.822 527.801 359.848 525.172 348.281L524.745 348.214C512.307 372.062 498.854 409.417 496.729 434.151 495.391 449.839 499.786 463.911 507.865 471.578 507.953 471.669 508.097 471.672 508.189 471.584 508.205 471.568 508.218 471.551 508.229 471.531 527.755 437.094 567.26 378.443 595.391 350.271 616.834 328.265 640.766 308.831 666.703 292.359 670.356 290.056 674.327 288.302 678.49 287.151 679.033 286.964 679.627 287.253 679.814 287.797 679.973 288.26 679.788 288.772 679.37 289.026 658.041 303.868 638.077 320.579 619.714 338.964 587.255 371.453 541.943 434.031 520.12 475.562 518.979 477.75 517.828 479.828 516.562 481.906Z" fill="#FFFFFF"/></g></g></g></g></svg>