<svg width="502" height="501" xmlns="http://www.w3.org/2000/svg" xmlns:xlink="http://www.w3.org/1999/xlink" overflow="hidden"><defs><clipPath id="clip0"><rect x="407" y="151" width="502" height="501"/></clipPath><clipPath id="clip1"><rect x="408" y="152" width="500" height="500"/></clipPath><clipPath id="clip2"><rect x="408" y="152" width="500" height="500"/></clipPath><clipPath id="clip3"><rect x="408" y="152" width="500" height="500"/></clipPath></defs><g clip-path="url(#clip0)" transform="translate(-407 -151)"><g clip-path="url(#clip1)"><g clip-path="url(#clip2)"><g clip-path="url(#clip3)"><path d="M835.115 339.5C835.146 302.138 804.883 271.823 767.52 271.792 752.238 271.779 737.401 276.941 725.427 286.438 722.023 249.216 689.09 221.801 651.868 225.205 619.361 228.178 593.608 253.931 590.635 286.438 561.344 263.229 518.785 268.159 495.576 297.45 472.367 326.741 477.297 369.301 506.589 392.509 517.161 400.887 529.997 405.913 543.448 406.943L543.448 516.583 772.615 516.583 772.615 406.943C807.868 404.243 835.101 374.857 835.115 339.5Z" fill="#FFFFFF"/><path d="M543.448 537.417 772.615 537.417 772.615 579.083 543.448 579.083Z" fill="#FFFFFF"/></g></g></g></g></svg>