<svg width="502" height="502" xmlns="http://www.w3.org/2000/svg" xmlns:xlink="http://www.w3.org/1999/xlink" overflow="hidden"><defs><clipPath id="clip0"><rect x="401" y="98" width="502" height="502"/></clipPath><clipPath id="clip1"><rect x="402" y="99" width="500" height="500"/></clipPath><clipPath id="clip2"><rect x="402" y="99" width="500" height="500"/></clipPath><clipPath id="clip3"><rect x="402" y="99" width="500" height="500"/></clipPath></defs><g clip-path="url(#clip0)" transform="translate(-401 -98)"><g clip-path="url(#clip1)"><g clip-path="url(#clip2)"><g clip-path="url(#clip3)"><path d="M839.5 177.125 464.5 177.125C452.994 177.125 443.667 186.453 443.667 197.958L443.667 411.5C443.667 423.006 452.994 432.333 464.5 432.333L552.979 432.333 549.667 411.5 464.5 411.5 464.5 197.958 839.5 197.958 839.5 411.5 755.781 411.5 752.521 432.333 839.5 432.333C851.006 432.333 860.333 423.006 860.333 411.5L860.333 197.958C860.333 186.453 851.006 177.125 839.5 177.125Z" fill="#FFFFFF"/><path d="M573.844 333.375 573.844 286.5 730.094 286.5 730.094 333.375 750.927 333.375 750.927 265.667 553.01 265.667 553.01 333.375 573.844 333.375Z" fill="#FFFFFF"/><path d="M739.323 387.656 745.75 387.656C754.38 387.656 761.375 380.661 761.375 372.031 761.375 363.402 754.38 356.406 745.75 356.406L558.25 356.406C549.62 356.406 542.625 363.402 542.625 372.031 542.625 380.661 549.62 387.656 558.25 387.656L566.146 387.656 586.74 517.797C587.351 521.753 590.192 524.999 594.031 526.13 595.011 526.423 596.029 526.572 597.052 526.573 599.973 526.57 602.757 525.331 604.714 523.161L621.146 505.104 643.276 529.312C648.129 534.62 656.365 534.988 661.672 530.135 661.958 529.873 662.233 529.599 662.495 529.312L684.464 505.281 700.734 523.161C702.694 525.33 705.479 526.569 708.401 526.573 709.426 526.571 710.445 526.422 711.427 526.13 715.263 524.993 718.101 521.75 718.719 517.797ZM609.964 423.406 590.911 444.24 582.906 393.661ZM598.557 387.656 642.651 387.656 620.552 411.828ZM620.526 435.016 642.172 458.802 621.125 481.927 599.396 458.141ZM631.109 423.432 652.302 400.25 673.875 423.953 652.729 447.193ZM661.969 387.656 706.906 387.656 684.443 412.344ZM684.443 435.573 705.703 458.896 684.5 482.104 663.292 458.802ZM695.005 423.964 722.552 393.688 714.396 445.25ZM600.438 504.63 596.203 477.854 610.536 493.531ZM652.865 516.677 631.688 493.51 652.729 470.406 673.911 493.688ZM704.948 504.63 695.01 493.693 709.12 478.26Z" fill="#FFFFFF"/></g></g></g></g></svg>