<?xml version="1.0"?><svg width="640" height="480" xmlns="http://www.w3.org/2000/svg">
 <title>white treble clef</title>
 <g>
  <title>Layer 1</title>
  <path id="clef" d="m329.642395,366.433807c-25.687378,-1.415222 -51.914001,-16.687958 -67.599365,-34.217072c-18.185425,-20.323669 -25.682983,-47.955688 -23.762512,-70.647552c5.641968,-66.674896 82.133728,-106.082825 110.448975,-135.206886c18.953186,-19.49453 22.926453,-28.997833 27.159973,-39.024063c8.19574,-19.407524 9.516052,-42.146294 -6.732788,-43.843937c-15.513428,-1.620846 -28.27655,21.505253 -33.976868,37.310192c-5.12616,14.215683 -8.533386,28.478333 -5.449219,49.902481c1.385925,9.625305 39.535034,278.304718 40.178589,282.469543c6.424744,41.619965 -18.684875,58.841827 -44.317444,61.905273c-55.351929,6.614838 -73.112488,-46.705231 -48.304382,-66.955627c19.09906,-15.591675 46.885132,-2.205933 45.383911,23.427307c-1.329224,22.703857 -24.814392,23.37262 -30.815308,22.854034c9.211853,15.660767 78.659729,23.842651 67.996216,-46.912537c-1.498535,-9.942627 -36.75061,-262.43071 -37.614685,-268.080612c-6.466919,-42.297279 -7.452454,-75.777168 15.796082,-114.847307c8.582825,-14.422975 22.147034,-23.734336 28.805847,-22.515292c1.463379,0.267866 2.921204,0.777193 4.078552,1.909171c17.833496,17.418192 23.304321,56.043863 21.350525,78.232405c-2.000488,22.719154 -3.11554,46.238525 -26.947266,73.665848c-9.222839,10.613953 -37.366272,33.996002 -53.502441,47.429398c-22.672607,18.874374 -39.117493,35.359222 -48.015442,55.246216c-9.99939,22.350708 -11.692261,50.486053 10.893066,75.4505c12.991821,14.104706 34.547607,24.113068 52.688965,24.326385c50.442444,0.593781 65.172852,-22.976013 65.643555,-49.667999c0.775085,-43.951447 -55.201477,-60.568527 -78.21521,-30.348175c-13.343567,17.523071 -7.478516,35.966644 1.483215,44.741364c3.07605,3.011353 6.512024,5.305298 9.762756,6.584015c1.177917,0.463257 3.948975,1.684845 3.162537,3.4729c-0.65448,1.487793 -1.925171,1.571381 -3.08252,1.440063c-14.512695,-1.649933 -30.582275,-14.799286 -34.534058,-37.416901c-5.757813,-32.965515 24.931519,-72.070618 68.738831,-65.675003c28.679626,4.186813 55.3078,27.579117 52.972229,71.138046c-2.00238,37.332428 -34.652832,66.554688 -83.674316,63.853821z" fill="#ffffff"/>
 </g>
</svg>