<svg width="501" height="501" xmlns="http://www.w3.org/2000/svg" xmlns:xlink="http://www.w3.org/1999/xlink" overflow="hidden"><defs><clipPath id="clip0"><rect x="327" y="33" width="501" height="501"/></clipPath><clipPath id="clip1"><rect x="328" y="33" width="500" height="500"/></clipPath><clipPath id="clip2"><rect x="328" y="33" width="500" height="500"/></clipPath><clipPath id="clip3"><rect x="328" y="33" width="500" height="500"/></clipPath></defs><g clip-path="url(#clip0)" transform="translate(-327 -33)"><g clip-path="url(#clip1)"><g clip-path="url(#clip2)"><g clip-path="url(#clip3)"><path d="M578 85.0833C468.625 85.0833 380.083 173.625 380.083 283 380.083 392.375 468.625 480.917 578 480.917 687.375 480.917 775.917 392.375 775.917 283 775.917 173.625 687.375 85.0833 578 85.0833ZM578 470.5C474.354 470.5 390.5 386.646 390.5 283 390.5 179.354 474.354 95.5 578 95.5 681.646 95.5 765.5 179.354 765.5 283 765.5 386.646 681.646 470.5 578 470.5Z" fill="#FFFFFF"/><path d="M460.812 355.917C492.583 420.5 571.229 447.062 635.812 415.292 661.854 402.792 682.688 381.438 695.188 355.917L460.812 355.917ZM578 418.417C538.417 418.417 501.438 399.146 479.042 366.333L676.958 366.333C654.562 399.146 617.583 418.417 578 418.417L578 418.417Z" fill="#FFFFFF"/><path d="M469.146 290.292C470.708 292.896 473.833 293.417 476.438 292.375L538.938 256.438C541.542 254.875 542.062 251.75 541.021 249.146 540.5 248.104 539.979 247.583 538.938 247.062L476.438 211.125C473.833 209.563 470.708 210.604 469.146 212.688 467.583 215.292 468.625 218.417 470.708 219.979 470.708 219.979 470.708 219.979 470.708 219.979L525.917 251.75C525.917 251.75 525.917 251.75 525.917 251.75 525.917 251.75 525.917 251.75 525.917 251.75L471.229 283C468.625 284.562 468.104 287.688 469.146 290.292Z" fill="#FFFFFF"/><path d="M617.062 256.438 679.562 291.854C682.167 293.417 685.292 292.375 686.854 290.292 688.417 287.688 687.375 284.562 685.292 283 685.292 283 685.292 283 685.292 283L630.083 251.75C630.083 251.75 630.083 251.75 630.083 251.75 630.083 251.75 630.083 251.75 630.083 251.75L684.771 220.5C687.375 218.938 688.417 215.812 686.854 213.208 685.292 210.604 682.167 209.563 679.562 211.125 679.562 211.125 679.562 211.125 679.562 211.125L617.062 247.062C614.458 248.625 613.938 251.75 614.979 254.354 615.5 255.396 616.542 255.917 617.062 256.438L617.062 256.438Z" fill="#FFFFFF"/></g></g></g></g></svg>